<?xml version="1.0" encoding="iso-8859-1"?>
<!-- Generator: Adobe Illustrator 19.0.0, SVG Export Plug-In . SVG Version: 6.00 Build 0)  -->
<svg xmlns="http://www.w3.org/2000/svg" xmlns:xlink="http://www.w3.org/1999/xlink" version="1.1" id="Layer_1" x="0px" y="0px" viewBox="0 0 512 512" style="enable-background:new 0 0 512 512;" xml:space="preserve" width="512px" height="512px">
<g>
	<g>
		<path d="M481.988,466.562c0,3.736-15.973,15.006-45.018,15.006s-45.018-11.269-45.018-15.006c0-19.862-30.012-19.781-30.012,0    c0,3.736-15.973,15.006-45.018,15.006s-45.018-11.269-45.018-15.006c0-19.862-30.012-19.781-30.012,0    c0,3.736-15.973,15.006-45.018,15.006c-29.044,0-45.018-11.269-45.018-15.006c0-19.862-30.012-19.781-30.012,0    c0,3.736-15.973,15.006-45.018,15.006c-29.044,0-46.816-11.268-46.816-15.006c0-19.862-30.012-19.781-30.012,0    c0,46.054,96.862,59.403,136.852,27.682c29.21,23.17,90.838,23.17,120.047,0c29.21,23.17,90.838,23.17,120.047,0    C416.909,525.945,512,512.637,512,466.562C512,446.7,481.988,446.781,481.988,466.562z" fill="#424242"/>
	</g>
</g>
<g>
	<g>
		<path d="M75.828,0.378c-10.11,0-17.285,9.816-14.347,19.403c15.431,50.323,24.605,103.712,27.272,156.731    c0.709,13.573,16.373,15.51,29.763,19.974c-13.326,4.471-28.464,6.437-28.59,20.252c-0.452,49.541-6.392,97.956-17.422,144.54    c7.612,0.354,14.687,0.021,21.907-2.321c15.494-36.496,67.373-36.536,82.885,0c10.593,3.437,26.57,3.437,37.163,0    c15.494-36.496,67.373-36.536,82.885,0c10.593,3.437,26.569,3.437,37.163,0c4.448-10.478,12.991-18.528,23.375-23.163    c-6.928-48.631-26.104-94.334-56.83-133.886c-12.187-15.663,11.563-34.099,23.709-18.406    c34.333,44.197,55.596,95.368,63.032,149.801c13.328,3.658,24.271,13.108,29.598,25.654c8.248,2.676,21.087,3.651,32.75,1.029    C441.39,160.828,277.104,0.378,75.828,0.378z" fill="#424242"/>
	</g>
</g>
<g>
	<g>
		<path d="M481.988,376.527c0,3.736-15.973,15.006-45.018,15.006s-45.018-11.269-45.018-15.006c0-19.862-30.012-19.781-30.012,0    c0,3.736-15.973,15.006-45.018,15.006s-45.018-11.269-45.018-15.006c0-19.862-30.012-19.781-30.012,0    c0,3.736-15.973,15.006-45.018,15.006c-29.044,0-45.018-11.269-45.018-15.006c0-19.862-30.012-19.781-30.012,0    c0,3.736-15.973,15.006-45.018,15.006c-29.044,0-46.816-11.268-46.816-15.006c0-19.862-30.012-19.781-30.012,0    c0,46.054,96.862,59.403,136.852,27.682c29.21,23.17,90.838,23.17,120.047,0c29.21,23.17,90.838,23.17,120.047,0    C416.909,435.909,512,422.602,512,376.527C512,356.665,481.988,356.746,481.988,376.527z" fill="#424242"/>
	</g>
</g>
<g>
</g>
<g>
</g>
<g>
</g>
<g>
</g>
<g>
</g>
<g>
</g>
<g>
</g>
<g>
</g>
<g>
</g>
<g>
</g>
<g>
</g>
<g>
</g>
<g>
</g>
<g>
</g>
<g>
</g>
</svg>
